<svg width="32" height="32" fill="none" xmlns="http://www.w3.org/2000/svg"><path d="M27.005 20.794c1.102 0 1.995-.87 1.995-1.944 0-1.074-.893-1.944-1.995-1.944h-.57v-.016c1.102 0 1.996-.87 1.996-1.944 0-1.074-.894-1.944-1.996-1.944v-.012l-7.93.098c1.533-2.62 1.52-5.586 1.308-7.396C19.7 4.729 18.867 4 17.87 4c-.98 0-1.803.708-1.937 1.654-.44 3.11-1.95 4.392-3.322 6.29C11.02 14.147 11 16.674 11 16.674v6.869C11 25.453 12.459 27 14.419 27h12.016c.773 0 1.399-.61 1.399-1.363s-.626-1.363-1.399-1.363c.982 0 1.778-.775 1.778-1.731 0-.957-.796-1.732-1.778-1.732v-.016h.57ZM7.637 13H4.363C3.61 13 3 13.57 3 14.274v11.452C3 26.43 3.61 27 4.363 27h3.274C8.39 27 9 26.43 9 25.726V14.274C9 13.57 8.39 13 7.637 13Z" fill="#A3A7AD"/><circle cx="6" cy="16" r="1" fill="#fff"/></svg>