<svg width="32" height="32" fill="none" xmlns="http://www.w3.org/2000/svg"><path fill-rule="evenodd" clip-rule="evenodd" d="M2.667 8a2.667 2.667 0 0 1 2.666-2.667h21.334A2.667 2.667 0 0 1 29.333 8v4a4 4 0 1 0 0 8v4a2.667 2.667 0 0 1-2.666 2.667H5.333A2.667 2.667 0 0 1 2.667 24v-4a4 4 0 0 0 0-8V8Z" fill="#fff"/><path d="m12.573 19.427 6.667-6.667M19.332 19a.333.333 0 1 0 .003.666.333.333 0 0 0-.003-.666M12.665 12.333a.333.333 0 1 0 .003.666.333.333 0 0 0-.003-.666" stroke="#5974FF" stroke-width="2" stroke-linecap="round" stroke-linejoin="round"/></svg>