<svg width="181" height="128" fill="none" xmlns="http://www.w3.org/2000/svg"><g clip-path="url('#clip0_1486_36768')"><path d="M78.222 20.616c0 10.6-9.137 24.88-17.778 24.88-8.64 0-38.4 1.36-38.4-9.241C29.867 12.795 48.355-2.132 58.311.71c6.4.71 14.933.711 19.911 19.905Z" fill="#fff"/><path d="M29 109.034h29.325m-53.745 0h9.97-9.97Z" stroke="#fff" stroke-width="1.411" stroke-linejoin="round"/><path d="m75.136 91.376 42.582 24.582m11.804-56.017 42.581 24.582-42.581-24.582Z" stroke="#fff" stroke-width="1.411" stroke-miterlimit="1.5"/><path d="m163.2 73.647 1.38.796m-13.768-8.204 9.558 5.517-9.558-5.517Z" stroke="#fff" stroke-width="1.411" stroke-miterlimit="1.5" stroke-linecap="round"/><path fill-rule="evenodd" clip-rule="evenodd" d="M73.828 23.132c.782 0 1.422.64 1.422 1.422 0 .782-.64 1.422-1.422 1.422-.783 0-1.423-.64-1.423-1.422 0-.782.64-1.422 1.422-1.422ZM59.847 27.383c1.351 2.474 4.053 3.853 7.196 4.876-2.588.299-4.92.043-6.954-.739a1.523 1.523 0 0 1-.882-1.82c.284-1.038.654-2.317.654-2.317h-.014Z" fill="#000"/><path fill-rule="evenodd" clip-rule="evenodd" d="m104.491 98.91 4.181-2.416s-9.23-5.332-14.578-8.417c-.44-.256-1.08-.37-1.778-.327a4.708 4.708 0 0 0-1.962.569c-.555.313-.91.725-.996 1.137-.085.413.114.768.555 1.024 5.347 3.085 14.578 8.417 14.578 8.417v.014Z" fill="#FF59A3"/><path d="M121.728 106.404c.569-.327.925-.74 1.01-1.152.085-.412-.114-.796-.569-1.052-5.461-3.156-22.642-13.066-28.103-16.222-.44-.256-1.095-.37-1.82-.327a4.706 4.706 0 0 0-2.006.583c-.569.327-.924.739-1.01 1.151-.085.413.128.796.57 1.052 5.46 3.157 22.641 13.066 28.102 16.222.441.256 1.096.37 1.821.328a4.71 4.71 0 0 0 2.005-.583Z" stroke="#fff" stroke-width="1.411" stroke-miterlimit="1.5"/><path fill-rule="evenodd" clip-rule="evenodd" d="M142.834 73.703a2.878 2.878 0 0 1 2.859 1.152c.654.896.711 2.104.17 3.071-3.555 6.398-9.372 16.848-12.046 21.639a2.861 2.861 0 0 1-1.749 1.365 2.916 2.916 0 0 1-2.205-.285c-5.29-3.056-17.664-10.194-25.443-14.686a2.88 2.88 0 0 1-1.394-2.972 2.874 2.874 0 0 1 2.304-2.346c10.24-1.905 28.174-5.232 37.49-6.952l.014.014Zm-21.675 13.45c-1.024 0-1.806.668-1.806 1.422 0 .753.796 1.422 1.806 1.422s1.806-.669 1.806-1.422c0-.754-.796-1.422-1.806-1.422Zm3.926-.327c.341.2.824.327 1.322.313a2.75 2.75 0 0 0 1.309-.341l9.628-5.56c.555-.326.811-.81.839-1.25.014-.484-.213-.981-.782-1.323a2.531 2.531 0 0 0-1.323-.313c-.483 0-.953.143-1.308.342-2.859 1.649-6.77 3.91-9.629 5.559-.554.327-.81.81-.839 1.25-.014.484.214.996.783 1.323Z" fill="#FF59A3"/><path d="M76.8 30.567c1.003.87-5.689 8.531-8.648 11.374 4.563 6.47 6.984 17.245 6.984 26.274 0 9.611-1.778 21.71-6.272 30.198a10.847 10.847 0 0 1-13.397 5.062c-9.301-3.64-18.276-3.512-28.658 0a9.82 9.82 0 0 1-8.832-1.294c-2.563-1.827-4.46-4.277-5.807-7.172-8.06-17.332 3.654-50.636 10.856-62.039" fill="#fff"/><path clip-rule="evenodd" d="M26.624 104.243v.909c0 .299-.028.612-.1.91-.199.925-.64 3-.64 3H17.21l6.4-3.654.412-.824 2.603-.327v-.014ZM61.17 104.2v1.521c.014.484.113 3.341.113 3.341l9.743-.028-7.168-4.322-.214-1.209c-.768.342-1.706.896-2.488.711l.014-.014Z" stroke="#fff" stroke-width="1.411" stroke-linecap="round" stroke-linejoin="round"/><path d="M70.485 101.328c10.567 6.099 28.018 16.165 33.863 19.549a5 5 0 0 0 5.007 0c11.107-6.412 55.993-32.316 69.319-40.008a2.496 2.496 0 0 0 1.251-2.161c0-.896-.469-1.72-1.251-2.161-8.974-5.175-28.8-16.62-36.338-20.97a4.999 4.999 0 0 0-5.006 0c-5.191 2.999-45.64 26.344-62.407 36.012m-1.038 17.445a32404.752 32404.752 0 0 1 30.463 17.587 5 5 0 0 0 5.007 0c11.107-6.412 55.993-32.316 69.319-40.008a2.513 2.513 0 0 0 1.251-2.161" stroke="#fff" stroke-width="1.411" stroke-linejoin="round"/><path fill-rule="evenodd" clip-rule="evenodd" d="M69.533 15.313c-.27.227-.626.326-.968.27a1.284 1.284 0 0 1-.853-.54c-7.651-11.474-29.781-4.962-36.65 4.25 0 0 2.887-4.222 9.5-12.099C47.204-.696 59.392.882 59.392.882h.071c6.315 1.166 14.507 5.175 17.835 14.274-2.702-1.791-5.945-1.336-7.765.156Z" fill="#000"/><path d="M78.37 66.003c-.294-7.257-2.036-15.271-5.063-21.458 11.435 6.666 18.764 17.799 20.87 25.7.18.824-.105 1.68-.734 2.232a2.312 2.312 0 0 1-2.302.429c-2.314-.99-4.357-2.266-6.342-3.507l-.476-.296c-1.963-1.225-3.904-2.4-5.954-3.1Z" fill="#000" stroke="#fff" stroke-width="1.411"/><path d="M31.061 19.293C38.87 6.81 45.712.882 57.16.882c11.45 0 21.334 9.554 21.334 21.326 0 7.01-4.708 15.27-9.942 19.165" stroke="#fff" stroke-width="1.411" stroke-linejoin="round"/><path fill-rule="evenodd" clip-rule="evenodd" d="M60.8 26.857s3.783-2.389 5.888-3.711a1.782 1.782 0 0 1 2.375.427c1.309 1.72 3.627 4.748 5.149 6.739.284.37.327.867.113 1.28a1.207 1.207 0 0 1-1.109.639c-4.95-.227-9.387-1.464-12.402-5.36l-.014-.014ZM61.554 18.028c.782 0 1.422.64 1.422 1.422 0 .782-.64 1.422-1.422 1.422-.782 0-1.422-.64-1.422-1.422 0-.782.64-1.422 1.422-1.422Z" fill="#000"/><path d="M65.365 38.8c6.358 5.516 9.771 18.696 9.771 29.416 0 9.61-1.778 21.71-6.272 30.197a10.847 10.847 0 0 1-13.397 5.062c-9.301-3.64-18.276-3.512-28.658 0a9.82 9.82 0 0 1-8.832-1.294c-2.563-1.827-4.46-4.277-5.807-7.172-8.06-17.332 3.654-50.636 10.856-62.039" stroke="#fff" stroke-width="1.411" stroke-linejoin="round"/><path fill-rule="evenodd" clip-rule="evenodd" d="M18.84 28.823c-3.228.982-8.917 2.456-13.724-2.346-2.456-2.389-5.149-7.875-2.774-13.535l2.589-2.573 6.812 6.64a4.671 4.671 0 0 0 6.6-.086 4.68 4.68 0 0 0 1.015-1.59l-.31-.367L9.34 5.933l2.196-2.127.347.338.039-.026-.279-.384A12.26 12.26 0 0 1 24.8 6.331a12.3 12.3 0 0 1 2.987 12.967l.623.607h.002v.002l24.292 23.66c4.48-2.062 9.97-1.294 13.71 2.346a12.285 12.285 0 0 1 2.76 13.535l-2.76 2.393-6.627-6.46c-1.849-1.79-4.504-1.483-4.992-.98l-.007.007c-.008.03-.02.071-.04.124a4.662 4.662 0 0 0 1.114 4.973l6.713 6.54c-2.873 5.043-12.375 3.412-16.002-.128-3.57-3.47-4.422-8.445-2.829-12.839L18.84 28.823ZM11.586 3.757l-.05.049-.02-.02.07-.029Zm0 0 .057-.023-.013-.019-.044.042Z" fill="#fff"/><path d="M68.423 58.661s-1.095 1.394-2.503 2.716l-6.812-6.64a4.667 4.667 0 0 0-4.992-.98m7.865 11.515-2.66 2.688a12.26 12.26 0 0 1-13.283-2.545c-3.57-3.47-4.566-8.588-2.973-12.98l-2.133-2.077M35.2 44.913 18.162 28.179c-4.48 2.076-9.984 1.308-13.725-2.346a12.24 12.24 0 0 1-2.773-13.535m9.287-9.227-2.29 2.218 9.458 9.454m2.603 10.863c-4.48 2.075-9.984 1.308-13.725-2.346-3.712-3.611-4.65-9.028-2.744-13.535l6.812 6.64a4.671 4.671 0 0 0 6.6-.086c1.791-1.848 1.763-4.791-.086-6.583l-6.742-6.554a12.26 12.26 0 0 1 13.284 2.545 12.301 12.301 0 0 1 2.987 12.966l24.917 24.27c4.48-2.062 9.97-1.294 13.71 2.346a12.285 12.285 0 0 1 2.76 13.535l-6.813-6.626c-1.849-1.791-4.793-1.763-6.585.086a4.667 4.667 0 0 0 .085 6.596l6.713 6.54c-4.394 1.82-9.657.996-13.283-2.545-3.57-3.469-4.566-8.587-2.973-12.98l-24.917-24.27Z" stroke="#000" stroke-width="1.411" stroke-linejoin="round"/><path fill-rule="evenodd" clip-rule="evenodd" d="M36.537 45.88s5.091-2.645 8.49-4.095c1.423-.611 3.684-.455 4.11 1.62 3.101 15.128-20.323 27.896-27.007 24.1-4.395-3.654-6.429-10.578-6.628-18.796 2.503-6.568 7.61-15.61 7.61-15.61l12.116 11.786-.184.184-8.761 4.706.668 1.252 9.586-5.147Z" fill="#000"/></g><defs><clipPath id="clip0_1486_36768"><path fill="#fff" d="M0 0h180.622v128H0z"/></clipPath></defs></svg>