<svg width="54" height="54" fill="none" xmlns="http://www.w3.org/2000/svg"><path d="M20.515.957 33.882.956c6.98 0 9.511.727 12.063 2.091a14.23 14.23 0 0 1 5.92 5.92l.2.383c1.235 2.433 1.89 5.049 1.89 11.68v12.852l-.005 1.014c-.069 6.22-.79 8.625-2.086 11.049a14.229 14.229 0 0 1-5.919 5.92l-.383.2c-2.433 1.235-5.05 1.89-11.68 1.89H21.03l-1.014-.005c-6.22-.069-8.625-.79-11.05-2.086a14.228 14.228 0 0 1-5.919-5.92l-.2-.382C1.612 43.129.956 40.512.956 33.882V21.03c0-6.98.727-9.512 2.091-12.063a14.229 14.229 0 0 1 5.92-5.92l.383-.2C11.719 1.644 14.26.991 20.515.957z" fill="#1F2229"/><path d="M13.64 19.547H8v5.742h5.64v-5.742z" fill="#FF3495"/><path d="M29.945 35.19h15.32v5.742h-15.32V35.19zm6.906-13.103c1.738 0 3.146 1.434 3.146 3.203 0 1.77-1.408 3.203-3.146 3.203h-6.906v5.741h6.906c3.736 0 6.935-2.386 8.202-5.741a9.024 9.024 0 0 0 .583-3.203c0-4.931-3.94-8.944-8.785-8.944-4.845 0-8.786 4.012-8.786 8.944h5.64c0-1.77 1.408-3.203 3.146-3.203zM20.22 35.19h8.785v5.742h-5.639c-4.852 0-8.785-4.005-8.785-8.944V12.704h5.639v6.845h6.58v5.741h-6.58v9.9z" fill="#fff"/></svg>