<svg width="57" height="56" fill="none" xmlns="http://www.w3.org/2000/svg"><path d="M9.141 17.182H.75v8.542h8.391v-8.542Z" fill="#FF3495"/><path d="M33.403 40.458h22.795V49H33.403v-8.542ZM43.678 20.96c2.586 0 4.68 2.133 4.68 4.766 0 2.632-2.094 4.765-4.68 4.765H33.403v8.542h10.275c5.559 0 10.32-3.55 12.205-8.542.56-1.48.867-3.087.867-4.765 0-7.338-5.864-13.308-13.072-13.308-7.209 0-13.072 5.97-13.072 13.308h8.39c0-2.633 2.096-4.766 4.682-4.766ZM18.933 40.458h13.072V49h-8.391c-7.22 0-13.073-5.959-13.073-13.308V7h8.392v10.184h9.79v8.543h-9.79v14.73Z" fill="#fff"/></svg>