<svg width="181" height="128" viewBox="0 0 181 128" fill="none" xmlns="http://www.w3.org/2000/svg">
    <g clip-path="url(#clip0_1486_36768)">
        <path d="M78.2222 20.6156C78.2222 31.2159 69.0846 45.4961 60.4444 45.4961C51.8042 45.4961 22.0444 46.8551 22.0444 36.2548C29.8667 12.7959 48.3555 -2.13246 58.3111 0.711113C64.7111 1.42193 73.2444 1.42197 78.2222 20.6156Z" fill="white"/>
        <path d="M28.9991 109.034H58.3254M4.57959 109.034H14.5494H4.57959Z" stroke="white" stroke-width="1.41111" stroke-linejoin="round"/>
        <path d="M75.1362 91.3758L117.718 115.958M129.522 59.9409L172.103 84.5229L129.522 59.9409Z" stroke="white" stroke-width="1.41111" stroke-miterlimit="1.5"/>
        <path d="M163.2 73.6466L164.58 74.4427M150.812 66.2393L160.37 71.7556L150.812 66.2393Z" stroke="white" stroke-width="1.41111" stroke-miterlimit="1.5" stroke-linecap="round"/>
        <path fill-rule="evenodd" clip-rule="evenodd" d="M73.8275 23.1317C74.6097 23.1317 75.2497 23.7717 75.2497 24.5539C75.2497 25.3362 74.6097 25.9762 73.8275 25.9762C73.0453 25.9762 72.4053 25.3362 72.4053 24.5539C72.4053 23.7717 73.0453 23.1317 73.8275 23.1317Z" fill="black"/>
        <path fill-rule="evenodd" clip-rule="evenodd" d="M59.847 27.3828C61.1981 29.8567 63.9003 31.2358 67.0434 32.2594C64.455 32.558 62.1225 32.3021 60.0888 31.5201C59.3776 31.2215 58.9936 30.4396 59.207 29.7003C59.4914 28.6624 59.8612 27.3828 59.8612 27.3828H59.847Z" fill="black"/>
        <path fill-rule="evenodd" clip-rule="evenodd" d="M104.491 98.9109L108.672 96.494C108.672 96.494 99.4418 91.1624 94.0942 88.0772C93.6533 87.8213 93.0133 87.7076 92.3164 87.7502C91.6195 87.7929 90.9084 88.0061 90.3538 88.3189C89.7991 88.6317 89.4435 89.044 89.3582 89.4563C89.2729 89.8686 89.472 90.2241 89.9129 90.48C95.2604 93.5652 104.491 98.8967 104.491 98.8967V98.9109Z" fill="#FF59A3"/>
        <path d="M121.728 106.404C122.297 106.077 122.653 105.664 122.738 105.252C122.823 104.84 122.624 104.456 122.169 104.2C116.708 101.044 99.5273 91.134 94.066 87.9777C93.6251 87.7218 92.9709 87.6081 92.2455 87.6507C91.5344 87.6934 90.8091 87.9066 90.2402 88.2336C89.6713 88.5606 89.3157 88.973 89.2304 89.3853C89.1451 89.7976 89.3584 90.1814 89.7993 90.4374C95.2606 93.5936 112.441 103.503 117.902 106.659C118.343 106.915 118.998 107.029 119.723 106.987C120.434 106.944 121.159 106.731 121.728 106.404V106.404Z" stroke="white" stroke-width="1.41111" stroke-miterlimit="1.5"/>
        <path fill-rule="evenodd" clip-rule="evenodd" d="M142.834 73.7034C143.929 73.5043 145.038 73.9451 145.693 74.855C146.347 75.7507 146.404 76.9592 145.863 77.926C142.308 84.3238 136.491 94.7737 133.817 99.565C133.447 100.233 132.807 100.731 132.068 100.93C131.328 101.129 130.532 101.029 129.863 100.645C124.573 97.5887 112.199 90.4515 104.42 85.9588C103.381 85.3617 102.827 84.1674 103.026 82.9874C103.225 81.7931 104.149 80.869 105.33 80.6415C115.57 78.7363 133.504 75.4095 142.82 73.6891L142.834 73.7034ZM121.159 87.1531C120.135 87.1531 119.353 87.8213 119.353 88.5748C119.353 89.3284 120.149 89.9966 121.159 89.9966C122.169 89.9966 122.965 89.3284 122.965 88.5748C122.965 87.8213 122.169 87.1531 121.159 87.1531ZM125.085 86.8261C125.426 87.0251 125.909 87.1531 126.407 87.1389C126.891 87.1389 127.36 86.9967 127.716 86.7977C130.574 85.1484 134.485 82.8878 137.344 81.2386C137.899 80.9116 138.155 80.4282 138.183 79.9875C138.197 79.5041 137.97 79.0065 137.401 78.6653C137.06 78.4662 136.59 78.3383 136.078 78.3525C135.595 78.3525 135.125 78.4946 134.77 78.6937C131.911 80.3429 128 82.6035 125.141 84.2527C124.587 84.5797 124.331 85.0631 124.302 85.5039C124.288 85.9873 124.516 86.4991 125.085 86.8261Z" fill="#FF59A3"/>
        <path d="M76.8001 30.5675C77.8027 31.4375 71.1112 39.098 68.1518 41.9415C72.7145 48.4117 75.1362 59.1861 75.1362 68.2154C75.1362 77.8264 73.3584 89.9255 68.8641 98.4133C66.3041 103.233 60.5584 105.394 55.4668 103.475C46.1655 99.8351 37.1913 99.963 26.809 103.475C23.8224 104.484 20.537 104.001 17.977 102.181C15.4143 100.354 13.5163 97.9042 12.1701 95.0092C4.11015 77.677 15.8236 44.3732 23.0259 32.9703" fill="white"/>
        <path fill-rule="evenodd" clip-rule="evenodd" d="M26.6241 104.243C26.6241 104.243 26.6241 104.754 26.6241 105.152C26.6241 105.451 26.5956 105.764 26.5245 106.062C26.3254 106.987 25.8845 109.062 25.8845 109.062H17.209L23.609 105.408L24.0214 104.584L26.6241 104.257V104.243Z" stroke="white" stroke-width="1.41111" stroke-linecap="round" stroke-linejoin="round"/>
        <path fill-rule="evenodd" clip-rule="evenodd" d="M61.1697 104.2C61.1697 104.2 61.1697 105.28 61.1697 105.579C61.1697 105.622 61.1697 105.664 61.1697 105.721C61.184 106.205 61.2835 109.062 61.2835 109.062L71.0257 109.034L63.8577 104.712L63.6444 103.503C62.8764 103.845 61.9377 104.399 61.1555 104.214L61.1697 104.2Z" stroke="white" stroke-width="1.41111" stroke-linecap="round" stroke-linejoin="round"/>
        <path d="M70.4854 101.328C81.0525 107.427 98.5031 117.493 104.348 120.877C105.899 121.773 107.804 121.773 109.355 120.877C120.462 114.465 165.348 88.5606 178.674 80.869C179.442 80.4282 179.925 79.6036 179.925 78.7079C179.925 77.8122 179.456 76.9876 178.674 76.5469C169.7 71.3717 149.874 59.9266 142.336 55.5761C140.786 54.6804 138.88 54.6804 137.33 55.5761C132.139 58.576 91.6907 81.9211 74.9227 91.589M73.8845 109.034C84.3662 115.076 97.8062 122.839 104.348 126.621C105.899 127.517 107.804 127.517 109.355 126.621C120.462 120.209 165.348 94.3045 178.674 86.6128C179.442 86.1721 179.925 85.3333 179.925 84.4518" stroke="white" stroke-width="1.41111" stroke-linejoin="round"/>
        <path fill-rule="evenodd" clip-rule="evenodd" d="M69.5326 15.3125C69.2624 15.54 68.9069 15.6395 68.5655 15.5826C68.21 15.5258 67.9113 15.3267 67.7122 15.0424C60.0606 3.56886 37.9309 10.0805 31.0615 19.2934C31.0615 19.2934 33.9486 15.0708 40.562 7.19432C47.2037 -0.696384 59.3922 0.881758 59.3922 0.881758H59.4633C65.778 2.04759 73.97 6.05692 77.298 15.1561C74.5957 13.3647 71.3531 13.8197 69.5326 15.3125Z" fill="black"/>
        <path d="M78.3691 66.0034C78.076 58.7464 76.3339 50.7316 73.3068 44.545C84.7424 51.211 92.0706 62.3437 94.1765 70.2449C94.3561 71.0691 94.0721 71.9243 93.4435 72.4768C92.8185 73.0262 91.9194 73.1915 91.1415 72.9057C88.8266 71.9167 86.7845 70.6404 84.7989 69.3994C84.6401 69.3001 84.4817 69.2011 84.3235 69.1025C82.3601 67.8782 80.4187 66.7028 78.3691 66.0034Z" fill="black" stroke="white" stroke-width="1.41111"/>
        <path d="M31.0615 19.2934C38.8695 6.8104 45.7104 0.881714 57.1593 0.881714C68.6082 0.881714 78.4926 10.4359 78.4926 22.2079C78.4926 29.2172 73.7851 37.4775 68.5513 41.3731" stroke="white" stroke-width="1.41111" stroke-linejoin="round"/>
        <path fill-rule="evenodd" clip-rule="evenodd" d="M60.8 26.8567C60.8 26.8567 64.5832 24.4682 66.688 23.146C67.4703 22.6484 68.4943 22.8332 69.0632 23.5725C70.3716 25.2928 72.6898 28.3211 74.2116 30.3116C74.4961 30.6812 74.5387 31.1789 74.3254 31.5912C74.112 32.0035 73.6712 32.2452 73.216 32.231C68.2667 32.0035 63.8294 30.7666 60.8143 26.871L60.8 26.8567Z" fill="black"/>
        <path fill-rule="evenodd" clip-rule="evenodd" d="M61.5538 18.0278C62.336 18.0278 62.976 18.6678 62.976 19.4501C62.976 20.2323 62.336 20.8723 61.5538 20.8723C60.7716 20.8723 60.1316 20.2323 60.1316 19.4501C60.1316 18.6678 60.7716 18.0278 61.5538 18.0278Z" fill="black"/>
        <path d="M65.3655 38.7995C71.7228 44.3159 75.1361 57.4955 75.1361 68.2155C75.1361 77.8265 73.3584 89.9256 68.8641 98.4134C66.3041 103.233 60.5584 105.394 55.4668 103.475C46.1655 99.8352 37.1913 99.9631 26.809 103.475C23.8224 104.484 20.537 104.001 17.977 102.181C15.4143 100.354 13.5163 97.9043 12.1701 95.0093C4.11015 77.6771 15.8236 44.3733 23.0259 32.9703" stroke="white" stroke-width="1.41111" stroke-linejoin="round"/>
        <path fill-rule="evenodd" clip-rule="evenodd" d="M18.8402 28.8233C15.6117 29.8052 9.92284 31.2786 5.11578 26.4774C2.65999 24.0883 -0.0327166 18.6016 2.34245 12.9424L4.93089 10.369L11.7433 17.0086C13.5922 18.8 16.5362 18.7716 18.3424 16.9233C18.7993 16.4521 19.1379 15.9097 19.3581 15.3334L19.0483 14.9657L9.33978 5.93318L11.5359 3.80594L11.8832 4.14359L11.9215 4.1181L11.6432 3.73402C16.0118 1.96871 21.2076 2.82525 24.7993 6.33127C28.3549 9.80033 29.3647 14.9044 27.786 19.2976L28.4091 19.9045H28.4113V19.9067L52.7033 43.5669C57.1833 41.5053 62.6731 42.2731 66.4136 45.9127C70.1256 49.5382 71.0642 54.9408 69.1727 59.4478L66.4136 61.841L59.786 55.3816C57.9371 53.5902 55.2818 53.8975 54.794 54.4006L54.7866 54.4082C54.7793 54.4387 54.7665 54.4794 54.7467 54.5325C54.1212 56.2097 54.4926 58.1686 55.8607 59.5047L62.5736 66.0447C59.7006 71.0876 50.1985 69.4569 46.5718 65.9167C43.0021 62.4477 42.1505 57.4716 43.7433 53.0784L18.8402 28.8233ZM11.5863 3.75718L11.5359 3.80594L11.5158 3.78634L11.5863 3.75718ZM11.5863 3.75718L11.6432 3.73402L11.6296 3.71525L11.5863 3.75718Z" fill="white"/>
        <path d="M68.4232 58.6613C68.4232 58.6613 67.3281 60.0546 65.9201 61.3769L59.1077 54.7373C57.7424 53.4151 55.7797 53.0881 54.1157 53.7563M61.9806 65.2725L59.321 67.9596C54.9263 69.7936 49.6641 68.9548 46.0375 65.4146C42.4677 61.9456 41.4721 56.8273 43.065 52.4341L40.9317 50.3583M35.2001 44.913L18.1619 28.179C13.6819 30.2548 8.1779 29.487 4.43746 25.8332C0.697013 22.2077 -0.227431 16.8051 1.66412 12.2981M10.9512 3.07096L8.66146 5.28889L18.1192 14.7435M20.7219 25.6057C16.2419 27.6814 10.7379 26.9137 6.99746 23.2598C3.28546 19.6486 2.34679 14.2317 4.25257 9.72475L11.065 16.3643C12.9139 18.1557 15.8579 18.1273 17.6641 16.279C19.4561 14.4307 19.4277 11.4877 17.5788 9.69631L10.8375 3.14205C15.2321 1.308 20.4943 2.14683 24.121 5.68698C27.6766 9.15605 28.6863 14.2601 27.1077 18.6533L52.025 42.9226C56.505 40.861 61.9948 41.6288 65.7352 45.2685C69.4472 48.8939 70.3859 54.2966 68.4943 58.8035L61.6819 52.1782C59.833 50.3868 56.889 50.4152 55.097 52.2635C53.305 54.1117 53.3335 57.0548 55.1823 58.8604L61.8952 65.4004C57.5006 67.2203 52.2383 66.3956 48.6117 62.8555C45.0419 59.3864 44.0463 54.2681 45.6392 49.8749L20.7219 25.6057Z" stroke="black" stroke-width="1.41111" stroke-linejoin="round"/>
        <path fill-rule="evenodd" clip-rule="evenodd" d="M36.5369 45.8798C36.5369 45.8798 41.6284 43.2353 45.0275 41.7851C46.4498 41.1738 48.7111 41.3302 49.1378 43.4059C52.2382 58.5333 28.8142 71.3006 22.1298 67.5046C17.7351 63.8507 15.7013 56.9268 15.5022 48.7091C18.0053 42.1406 23.1111 33.0983 23.1111 33.0983L35.2284 44.8846L35.0435 45.0694L26.2826 49.7754L26.9511 51.0265L36.5369 45.8798Z" fill="black"/>
    </g>
    <defs>
        <clipPath id="clip0_1486_36768">
            <rect width="180.622" height="128" fill="white"/>
        </clipPath>
    </defs>
</svg>
