<svg width="56" height="56" viewBox="0 0 56 56" fill="none" xmlns="http://www.w3.org/2000/svg">
<path d="M8.38414 17.5469H0V25.9813H8.38414V17.5469Z" fill="#FF3495"/>
<path d="M19.0226 40.1263V35.5067C19.0226 35.497 19.0226 35.4874 19.0226 35.4777V25.9812H27.4067V17.5468H19.0226V8H10.5881V35.4777C10.5881 42.6895 16.4555 48.5569 23.6673 48.5569H30.5812V40.1263H19.0245H19.0226Z" fill="black"/>
<path d="M55.3402 40.1245H32.78V48.5589H55.3402V40.1245Z" fill="black"/>
<path d="M55.9981 25.9791C55.9981 18.7092 50.0844 12.7954 42.8145 12.7954C35.5446 12.7954 29.6309 18.7092 29.6309 25.9791H38.0653C38.0653 23.3597 40.1971 21.2279 42.8164 21.2279C45.4358 21.2279 47.5676 23.3597 47.5676 25.9791C47.5676 28.5984 45.4358 30.7302 42.8164 30.7302H32.7841V39.1646H39.4562L43.5206 39.1453C50.4635 38.7777 56.0001 33.0148 56.0001 25.981L55.9981 25.9791Z" fill="black"/>
</svg>
