<svg width="57" height="56" viewBox="0 0 57 56" fill="none" xmlns="http://www.w3.org/2000/svg">
<path d="M9.14106 17.1819H0.75V25.7242H9.14106V17.1819Z" fill="#FF3495"/>
<path d="M33.4028 40.4577H56.1984V49H33.4028V40.4577ZM43.6779 20.9611C46.264 20.9611 48.3589 23.0938 48.3589 25.7266C48.3589 28.3593 46.264 30.492 43.6779 30.492H33.4028V39.0343H43.6779C49.2368 39.0343 53.9973 35.4838 55.8829 30.492C56.4436 29.0111 56.75 27.405 56.75 25.7266C56.75 18.389 50.8863 12.4188 43.6779 12.4188C36.4695 12.4188 30.6058 18.3882 30.6058 25.7266H38.9968C38.9968 23.0938 41.0917 20.9611 43.6779 20.9611Z" fill="white"/>
<path d="M18.9325 40.4577H32.0047V49H23.6136C16.3945 49 10.5415 43.0414 10.5415 35.6922V7H18.9325V17.1842H28.7225V25.7266H18.9325V40.4577Z" fill="white"/>
</svg>
