<svg width="32" height="32" viewBox="0 0 32 32" fill="none" xmlns="http://www.w3.org/2000/svg">
<path d="M27.0046 20.7942C28.1067 20.7942 29 19.9239 29 18.85C29 17.7762 28.1067 16.9059 27.0046 16.9059H26.4352V16.8899C27.5374 16.8899 28.4307 16.0196 28.4307 14.9457C28.4307 13.8719 27.5374 13.0016 26.4352 13.0016V12.99L18.5054 13.0878C20.0383 10.4681 20.0255 7.50249 19.8129 5.69169C19.6998 4.72895 18.8667 4 17.8713 4C16.8914 4 16.0684 4.7085 15.9342 5.65435C15.4945 8.76481 13.9844 10.0458 12.6122 11.9437C11.0191 14.1466 11 16.6739 11 16.6739V23.5428C11 25.4523 12.4589 27 14.4187 27H26.4352C27.208 27 27.8339 26.3902 27.8339 25.6372C27.8339 24.8843 27.208 24.2745 26.4352 24.2745C27.417 24.2745 28.2126 23.4993 28.2126 22.5428C28.2126 21.5862 27.417 20.8111 26.4352 20.8111V20.7951L27.0046 20.7942Z" fill="#A3A7AD"/>
<path d="M7.63745 13H4.36255C3.61003 13 3 13.5702 3 14.2736V25.7264C3 26.4298 3.61003 27 4.36255 27H7.63745C8.38997 27 9 26.4298 9 25.7264V14.2736C9 13.5702 8.38997 13 7.63745 13Z" fill="#A3A7AD"/>
<circle cx="6" cy="16" r="1" fill="white"/>
</svg>
