<svg width="32" height="32" viewBox="0 0 32 32" fill="none" xmlns="http://www.w3.org/2000/svg">
<path fill-rule="evenodd" clip-rule="evenodd" d="M2.66669 8.00001C2.66669 6.52725 3.86059 5.33334 5.33335 5.33334H26.6667C28.1394 5.33334 29.3334 6.52725 29.3334 8.00001V12C27.1242 12 25.3334 13.7909 25.3334 16C25.3334 18.2091 27.1242 20 29.3334 20V24C29.3334 25.4728 28.1394 26.6667 26.6667 26.6667H5.33335C3.86059 26.6667 2.66669 25.4728 2.66669 24V20C4.87583 20 6.66669 18.2091 6.66669 16C6.66669 13.7909 4.87583 12 2.66669 12V8.00001Z" fill="white"/>
<path d="M12.5731 19.4267L19.2398 12.76" stroke="#5974FF" stroke-width="2" stroke-linecap="round" stroke-linejoin="round"/>
<path d="M19.3322 19C19.1482 19 18.9989 19.1493 19.0002 19.3333C19.0002 19.5173 19.1495 19.6667 19.3335 19.6667C19.5175 19.6667 19.6669 19.5173 19.6669 19.3333C19.6669 19.1493 19.5175 19 19.3322 19" stroke="#5974FF" stroke-width="2" stroke-linecap="round" stroke-linejoin="round"/>
<path d="M12.6653 12.3333C12.4813 12.3333 12.332 12.4827 12.3333 12.6667C12.3333 12.8507 12.4827 13 12.6667 13C12.8507 13 13 12.8507 13 12.6667C13 12.4827 12.8507 12.3333 12.6653 12.3333" stroke="#5974FF" stroke-width="2" stroke-linecap="round" stroke-linejoin="round"/>
</svg>
