<svg width="32" height="32" viewBox="0 0 32 32" fill="none" xmlns="http://www.w3.org/2000/svg">
<path fill-rule="evenodd" clip-rule="evenodd" d="M4.26767 27C4.14154 27 4.01248 26.9839 3.88489 26.9487C3.25718 26.78 2.81573 26.2168 2.80107 25.5656C2.7952 25.2855 2.69547 18.6283 7.09235 14.13C9.34799 11.823 12.3384 10.522 16.0005 10.2522V6.46671C16.0005 5.89617 16.332 5.37697 16.8497 5.13644C17.3659 4.89591 17.9775 4.97804 18.4131 5.34617L28.6793 14.0127C29.0064 14.2884 29.197 14.6947 29.2 15.123C29.2029 15.5512 29.0181 15.959 28.6954 16.2391L18.4292 25.1725C17.9966 25.5509 17.3821 25.6389 16.8585 25.4013C16.3364 25.1623 16.0005 24.6416 16.0005 24.0667V19.6828C10.3673 19.8251 8.78335 20.9705 5.51869 26.2989C5.24736 26.7419 4.76925 27 4.26767 27Z" fill="#B3B3B3"/>
</svg>
