<svg width="24" height="24" viewBox="0 0 24 24" fill="none" xmlns="http://www.w3.org/2000/svg">
<path fill-rule="evenodd" clip-rule="evenodd" d="M3 12C3 16.9706 7.02944 21 12 21C16.9706 21 21 16.9706 21 12C21 7.02944 16.9706 3 12 3C7.02944 3 3 7.02944 3 12ZM19.8 12C19.8 16.3078 16.3078 19.8 12 19.8C7.69218 19.8 4.2 16.3078 4.2 12C4.2 7.69218 7.69218 4.2 12 4.2C16.3078 4.2 19.8 7.69218 19.8 12ZM10.8 7.8C10.8 7.46863 11.0686 7.2 11.4 7.2C11.7314 7.2 12 7.46863 12 7.8V13.2H15C15.3314 13.2 15.6 13.4686 15.6 13.8C15.6 14.1314 15.3314 14.4 15 14.4H11.4C11.0686 14.4 10.8 14.1314 10.8 13.8V7.8Z" fill="#8F9399"/>
</svg>
